# xmcd
#
# Track frame offsets:
#	150
#	6687
#	25332
#	39589
#	61747
#	75669
#	94800
#	110755
#	130501
#	153925
#	175119
#	192211
#	208542
#
# Disc length: 2966 seconds
#
# Revision: 0
# Processed by: cddbd v1.5.2PL0 Copyright (c) Steve Scherf et al.
# Submitted via: dBpowerAMP V4.0
#
DISCID=a40b940d
DTITLE=Freek'D Out - Blood Staynz
DYEAR=2004
DGENRE=Rap
TTITLE0=Intro
TTITLE1=Today Was A Good Day
TTITLE2=Emcees
TTITLE3=Burning Inside Me
TTITLE4=Let It Go
TTITLE5=Trying To Survive
TTITLE6=Make You Shoot Yourself (Sympathy Remix)
TTITLE7=Ungodly
TTITLE8=Freek'N Out
TTITLE9=I'm Just A Fuck Up
TTITLE10=Chatty Toxsikk Bitch
TTITLE11=I Will Always Remember
TTITLE12=Sorry Mama
EXTD=
EXTT0=
EXTT1=
EXTT2=
EXTT3=
EXTT4=
EXTT5=
EXTT6=
EXTT7=
EXTT8=
EXTT9=
EXTT10=
EXTT11=
EXTT12=
PLAYORDER=
